<?xml version="1.0" encoding="utf-8"?>
<!-- Generator: Adobe Illustrator 27.0.0, SVG Export Plug-In . SVG Version: 6.00 Build 0)  -->
<svg version="1.1" id="Layer_1" xmlns="http://www.w3.org/2000/svg" xmlns:xlink="http://www.w3.org/1999/xlink" x="0px" y="0px"
	 viewBox="0 0 300 300" style="enable-background:new 0 0 300 300;" xml:space="preserve">
<style type="text/css">
	.st0{fill:#EC793E;}
	.st1{fill:#A1D1C6;}
	.st2{fill:#5EA293;}
	.st3{fill:#F4BD73;}
</style>
<path class="st0" d="M-363.63-56.94c-0.26,0.48-0.47,0.95-0.63,1.41C-364.05-56-363.84-56.47-363.63-56.94z"/>
<path class="st1" d="M150,284.34c74.19,0,134.34-60.14,134.34-134.34H15.67C15.66,224.19,75.81,284.34,150,284.34z"/>
<path class="st2" d="M62.82,252.2c17.4-2.96,35.77-4.54,54.75-4.54c37.5,0,72.59,6.18,102.57,16.93
	c38.5-23.62,64.19-66.1,64.19-114.58H15.66C15.66,190.92,33.96,227.56,62.82,252.2z"/>
<path class="st1" d="M56.74,246.68c25.89-7.32,54.82-11.43,85.36-11.43c35.3,0,68.45,5.48,97.23,15.08
	c27.62-24.6,45.02-60.43,45.02-100.33H15.66C15.66,187.96,31.42,222.24,56.74,246.68z"/>
<path class="st2" d="M162.91,223.33c32.44,0,63.06,4.63,90.15,12.83c19.52-23.32,31.27-53.37,31.27-86.16H15.66
	c0,36.09,14.24,68.86,37.4,93C84.59,230.57,122.33,223.33,162.91,223.33z"/>
<path class="st1" d="M136.4,206.16c45.52,0,87.48,9.11,121.09,24.43c16.86-22.45,26.85-50.35,26.85-80.59H15.66
	c0,26.53,7.69,51.26,20.97,72.09C65.99,211.96,100.06,206.16,136.4,206.16z"/>
<path class="st2" d="M96.43,193.77c63.63,0,121.75,11.16,166.13,29.56c13.77-21.09,21.77-46.27,21.77-73.33H15.66
	c0,17.17,3.23,33.58,9.09,48.67C47.48,195.49,71.53,193.77,96.43,193.77z"/>
<path class="st1" d="M150,177.53c46.32,0,89.73,5.92,127.04,16.24c4.73-13.72,7.3-28.44,7.3-43.77H15.66
	c0,15.33,2.57,30.05,7.3,43.77C60.27,183.45,103.68,177.53,150,177.53z"/>
<path class="st0" d="M150,15.66C75.81,15.66,15.66,75.81,15.66,150h268.67C284.34,75.81,224.19,15.66,150,15.66z"/>
<path class="st3" d="M150,49.75C94.63,49.75,49.75,94.63,49.75,150h200.51C250.25,94.63,205.37,49.75,150,49.75z"/>
<path class="st0" d="M201.62,144.09c15.24-1.63,30.46-3.38,45.69-5.13c10.85-1.25,21.7-2.48,32.52-3.89
	c-0.86-7.89-2.38-15.56-4.49-22.97c-1.85,0.33-3.65,0.95-5.47,1.48c-22.49,6.5-44.97,13.01-67.47,19.51
	c-1.47,0.43-2.99,0.71-4.58,1.09c-0.97-2.14-1.81-3.97-2.71-5.96c0.97-0.62,1.73-1.2,2.56-1.62c6.58-3.3,13.17-6.57,19.77-9.84
	c16.54-8.2,33.11-16.35,49.63-24.59c0.24-0.12,0.47-0.25,0.7-0.38c-3.36-7.21-7.33-14.06-11.83-20.47
	c-0.44,0.29-0.88,0.58-1.31,0.88c-11.16,7.84-22.26,15.75-33.39,23.63c-9.75,6.91-19.55,13.74-29.22,20.76
	c-2.78,2.02-4.57,1.31-5.4-1.54c-0.34-1.15,0.45-3.11,1.37-4.08c13.02-13.77,26.14-27.43,39.24-41.11
	c4.84-5.06,9.78-10.02,14.51-15.18c0.07-0.08,0.13-0.15,0.19-0.23c-5.62-5.74-11.75-10.95-18.3-15.56c-0.33,0.4-0.65,0.81-0.97,1.27
	c-5.64,8.13-11.19,16.32-16.77,24.49c-8.98,13.15-18.06,26.24-26.87,39.51c-2.04,3.08-3.84,1.75-6.01,0.79
	c-2.84-1.25-1.04-2.99-0.41-4.46c4.36-10.08,8.8-20.12,13.21-30.18c6.01-13.7,12.05-27.39,18-41.12c0.22-0.52,0.41-1.01,0.57-1.5
	c-7.05-3.32-14.44-6-22.09-7.99c-0.23,0.63-0.44,1.31-0.63,2.06c-2.71,10.52-5.37,21.04-8.05,31.57c-3.69,14.5-7.42,28.99-11,43.52
	c-0.61,2.49-1.68,3.58-4.24,2.97c-1.02-0.24-2.08-0.36-3.22-0.55c-0.02-1.03-0.09-1.86-0.03-2.69c1.11-17.22,2.22-34.44,3.37-51.65
	c0.63-9.39,1.39-18.77,1.96-28.17c0.01-0.24,0.01-0.48,0.02-0.71c-4.41-0.34-8.87-0.46-13.39-0.33c-3.52,0.1-7.01,0.34-10.46,0.72
	c-0.1,1.22-0.11,2.44,0,3.61c2.31,24.51,4.82,48.99,7.2,73.49c0.58,5.94,0.36,6.07-6.1,6.36c-0.38-1.03-0.87-2.12-1.2-3.26
	c-2.34-7.99-4.64-15.99-6.95-23.99c-4.84-16.69-9.65-33.39-14.54-50.06c-0.18-0.6-0.38-1.16-0.6-1.68
	c-7.77,2.31-15.23,5.34-22.33,9.02c0.4,1.2,0.9,2.38,1.43,3.51c10.5,22.4,21.09,44.76,31.65,67.13c0.75,1.6,2.02,3.08-0.54,4.5
	c-2.21,1.22-3.47,1.09-5.03-1.08c-10.97-15.3-22.06-30.5-33.14-45.72c-4.13-5.68-8.19-11.41-12.51-16.94
	c-6.35,4.76-12.27,10.08-17.69,15.91c0.05,0.05,0.08,0.09,0.13,0.14c7.74,7.63,15.52,15.2,23.29,22.79
	c10.53,10.29,21.07,20.57,31.61,30.86c1.3,1.27,2.63,2.28,1.14,4.53c-2.45,3.7-2.49,3.88-6.69,1.1
	C85.3,103.14,64.78,89.76,44.5,76.02c-0.7-0.47-1.37-0.89-2.03-1.27c-4.3,6.49-8.07,13.38-11.24,20.61
	c8.96,4.05,17.99,7.96,26.99,11.94c14.35,6.34,28.7,12.67,43.02,19.09c1.08,0.48,2.56,1.49,2.7,2.42c0.5,3.47-2.58,5.81-6.02,4.95
	c-24.54-6.18-49.07-12.42-73.66-18.41c-1.97,7.43-3.35,15.1-4.07,22.97c0.02,0,0.04,0,0.06,0.01c25.38,2.05,50.76,4.06,76.14,6.06
	c1.45,0.11,2.77,0.16,3.62,0.97h99.15C199.54,144.64,200.28,144.23,201.62,144.09z"/>
<path class="st3" d="M150,96.43c-29.59,0-53.57,23.98-53.57,53.57h107.14C203.57,120.41,179.59,96.43,150,96.43z"/>
<path class="st2" d="M283.79,162.07c0.35-3.98,0.55-8,0.55-12.07H15.66c0,11.21,1.38,22.09,3.97,32.5
	C75.23,170.24,172.74,162.1,283.79,162.07z"/>
</svg>
